<?xml version="1.0" encoding="UTF-8" standalone="no"?>
<!-- Created with Inkscape (http://www.inkscape.org/) -->

<svg
   xmlns:dc="http://purl.org/dc/elements/1.1/"
   xmlns:cc="http://creativecommons.org/ns#"
   xmlns:rdf="http://www.w3.org/1999/02/22-rdf-syntax-ns#"
   xmlns:svg="http://www.w3.org/2000/svg"
   xmlns="http://www.w3.org/2000/svg"
   version="1.1"
   width="24"
   height="24"
   viewBox="0 0 24 24"
   id="svg4205"
   style="fill:#000000">
  <metadata
     id="metadata4215">
    <rdf:RDF>
      <cc:Work
         rdf:about="">
        <dc:format>image/svg+xml</dc:format>
        <dc:type
           rdf:resource="http://purl.org/dc/dcmitype/StillImage" />
        <dc:title></dc:title>
      </cc:Work>
    </rdf:RDF>
  </metadata>
  <defs
     id="defs4213" />
  <path
     d="M 19,2 H 14.82 C 14.4,0.84 13.3,0 12,0 10.7,0 9.6,0.84 9.18,2 H 5 C 3.9,2 3,2.9 3,4 v 16 c 0,1.1 0.9,2 2,2 h 14 c 1.1,0 2,-0.9 2,-2 V 4 C 21,2.9 20.1,2 19,2 z"
     id="path4221"
     style="fill:#4527a0;fill-opacity:1" />
  <path
     d="m 12,2 c 0.55,0 1,0.45 1,1 0,0.55 -0.45,1 -1,1 -0.55,0 -1,-0.45 -1,-1 0,-0.55 0.45,-1 1,-1 z"
     id="path4219"
     style="fill:#ffffff" />
  <path
     d="M 19,20 H 5 V 4 H 7 V 7 H 17 V 4 h 2 v 16 z"
     id="path4207"
     style="fill:#ffffff" />
  <path
     d="M 0,0 H 24 V 24 H 0 z"
     id="path4209"
     style="fill:none" />
  <rect
     width="12.711864"
     height="1.1186441"
     x="5.5932207"
     y="8.4406776"
     id="rect4751"
     style="fill:#ff6600;fill-opacity:1;stroke:#8aef00;stroke-width:354.33071899;stroke-linecap:butt;stroke-linejoin:miter;stroke-miterlimit:4;stroke-opacity:0;stroke-dasharray:none;stroke-dashoffset:2.8" />
  <rect
     width="12.711864"
     height="1.1186441"
     x="5.5423732"
     y="11.135593"
     id="rect4751-0"
     style="fill:#ff6600;fill-opacity:1;stroke:#8aef00;stroke-width:354.33071899;stroke-linecap:butt;stroke-linejoin:miter;stroke-miterlimit:4;stroke-opacity:0;stroke-dasharray:none;stroke-dashoffset:2.8" />
  <rect
     width="12.711864"
     height="1.1186441"
     x="5.5423727"
     y="13.881356"
     id="rect4751-0-3"
     style="fill:#ff6600;fill-opacity:1;stroke:#8aef00;stroke-width:354.33071899;stroke-linecap:butt;stroke-linejoin:miter;stroke-miterlimit:4;stroke-opacity:0;stroke-dasharray:none;stroke-dashoffset:2.8" />
  <rect
     width="12.711864"
     height="1.1186441"
     x="5.4406776"
     y="16.728815"
     id="rect4751-0-3-1"
     style="fill:#ff6600;fill-opacity:1;stroke:#8aef00;stroke-width:354.33071899;stroke-linecap:butt;stroke-linejoin:miter;stroke-miterlimit:4;stroke-opacity:0;stroke-dasharray:none;stroke-dashoffset:2.8" />
</svg>
