<?xml version="1.0" encoding="UTF-8" standalone="no"?>
<!-- Generator: Adobe Illustrator 19.0.0, SVG Export Plug-In . SVG Version: 6.00 Build 0)  -->

<svg
   xmlns:dc="http://purl.org/dc/elements/1.1/"
   xmlns:cc="http://creativecommons.org/ns#"
   xmlns:rdf="http://www.w3.org/1999/02/22-rdf-syntax-ns#"
   xmlns:svg="http://www.w3.org/2000/svg"
   xmlns="http://www.w3.org/2000/svg"
   xmlns:sodipodi="http://sodipodi.sourceforge.net/DTD/sodipodi-0.dtd"
   xmlns:inkscape="http://www.inkscape.org/namespaces/inkscape"
   version="1.1"
   id="Capa_1"
   x="0px"
   y="0px"
   viewBox="0 0 512 512"
   style="enable-background:new 0 0 512 512;"
   xml:space="preserve"
   inkscape:version="0.48.5 r10040"
   width="100%"
   height="100%"
   sodipodi:docname="teamwork.svg"><metadata
     id="metadata73"><rdf:RDF><cc:Work
         rdf:about=""><dc:format>image/svg+xml</dc:format><dc:type
           rdf:resource="http://purl.org/dc/dcmitype/StillImage" /><dc:title></dc:title></cc:Work></rdf:RDF></metadata><defs
     id="defs71" /><sodipodi:namedview
     pagecolor="#ffffff"
     bordercolor="#666666"
     borderopacity="1"
     objecttolerance="10"
     gridtolerance="10"
     guidetolerance="10"
     inkscape:pageopacity="0"
     inkscape:pageshadow="2"
     inkscape:window-width="1366"
     inkscape:window-height="711"
     id="namedview69"
     showgrid="false"
     inkscape:zoom="0.4609375"
     inkscape:cx="242.98305"
     inkscape:cy="250.57627"
     inkscape:window-x="0"
     inkscape:window-y="0"
     inkscape:window-maximized="1"
     inkscape:current-layer="Capa_1" /><g
     id="g3"
     style="fill:#ff3d00;fill-opacity:1"><g
       id="g5"
       style="fill:#ff3d00;fill-opacity:1"><path
         d="M105,61c-24.814,0-45,20.186-45,45c0,24.814,20.186,45,45,45c24.814,0,45-20.186,45-45C150,81.186,129.814,61,105,61z"
         id="path7"
         style="fill:#ff3d00;fill-opacity:1" /></g></g><g
     id="g9"
     style="fill:#ff3d00;fill-opacity:1"><g
       id="g11"
       style="fill:#ff3d00;fill-opacity:1"><path
         d="M256,0c-24.814,0-45,21.186-45,46c0,24.814,20.186,45,45,45c24.814,0,45-20.186,45-45S280.814,0,256,0z"
         id="path13"
         style="fill:#ff3d00;fill-opacity:1" /></g></g><g
     id="g15"
     style="fill:#ff3d00;fill-opacity:1"><g
       id="g17"
       style="fill:#ff3d00;fill-opacity:1"><path
         d="M135,196H60c-33.137,0-60,26.862-60,60c0,33.704,0,41.409,0,82.5C0,350.926,10.074,361,22.5,361S45,350.926,45,338.5V497    c0,8.284,6.716,15,15,15h30V406c0-8.291,6.709-15,15-15s15,6.709,15,15v106h45V226C165,209.431,151.569,196,135,196z"
         id="path19"
         style="fill:#ff3d00;fill-opacity:1" /></g></g><g
     id="g21"
     style="fill:#ff3d00;fill-opacity:1"><g
       id="g23"
       style="fill:#ff3d00;fill-opacity:1"><path
         d="M333.538,121.132C333.016,121.119,332.526,121,332,121H180c-0.526,0-1.016,0.119-1.538,0.132    c-3.931,19.105-15.209,35.508-30.672,46.311C174.739,173.328,195,197.307,195,226v286h46V346c0-8.291,6.709-15,15-15    s15,6.709,15,15v166h46V226c0-28.693,20.261-52.672,47.21-58.557C348.747,156.64,337.469,140.237,333.538,121.132z"
         id="path25"
         style="fill:#ff3d00;fill-opacity:1" /></g></g><g
     id="g27"
     style="fill:#ff3d00;fill-opacity:1"><g
       id="g29"
       style="fill:#ff3d00;fill-opacity:1"><path
         d="M407,61c-24.814,0-45,20.186-45,45c0,24.814,20.186,45,45,45c24.814,0,45-20.186,45-45C452,81.186,431.814,61,407,61z"
         id="path31"
         style="fill:#ff3d00;fill-opacity:1" /></g></g><g
     id="g33"
     style="fill:#ff3d00;fill-opacity:1"><g
       id="g35"
       style="fill:#ff3d00;fill-opacity:1"><path
         d="M452,196h-75c-16.569,0-30,13.431-30,30v286h45V406c0-8.291,6.709-15,15-15c8.291,0,15,6.709,15,15v106h30    c8.284,0,15-6.716,15-15V338.5c0,12.426,10.074,22.5,22.5,22.5c12.426,0,22.5-10.074,22.5-22.5c0-41.157,0-48.68,0-82.5    C512,222.862,485.137,196,452,196z"
         id="path37"
         style="fill:#ff3d00;fill-opacity:1" /></g></g><g
     id="g39" /><g
     id="g41" /><g
     id="g43" /><g
     id="g45" /><g
     id="g47" /><g
     id="g49" /><g
     id="g51" /><g
     id="g53" /><g
     id="g55" /><g
     id="g57" /><g
     id="g59" /><g
     id="g61" /><g
     id="g63" /><g
     id="g65" /><g
     id="g67" /></svg>