<?xml version="1.0" encoding="UTF-8" standalone="no"?>
<!-- Created with Inkscape (http://www.inkscape.org/) -->

<svg
   xmlns:dc="http://purl.org/dc/elements/1.1/"
   xmlns:cc="http://creativecommons.org/ns#"
   xmlns:rdf="http://www.w3.org/1999/02/22-rdf-syntax-ns#"
   xmlns:svg="http://www.w3.org/2000/svg"
   xmlns="http://www.w3.org/2000/svg"
   version="1.1"
   width="24"
   height="24"
   viewBox="0 0 24 24"
   id="svg2"
   style="fill:#000000">
  <metadata
     id="metadata12">
    <rdf:RDF>
      <cc:Work
         rdf:about="">
        <dc:format>image/svg+xml</dc:format>
        <dc:type
           rdf:resource="http://purl.org/dc/dcmitype/StillImage" />
        <dc:title></dc:title>
      </cc:Work>
    </rdf:RDF>
  </metadata>
  <defs
     id="defs10" />
  <path
     d="M 0,0 H 24 V 24 H 0 z"
     id="path4"
     style="fill:none" />
  <path
     d="m 3.55,18.54 1.41,1.41 1.79,-1.8 -1.41,-1.41 -1.79,1.8 z"
     id="path2999"
     style="fill:#ff3d00;fill-opacity:1" />
  <path
     d="m 11,22.45 h 2 V 19.5 h -2 v 2.95 z"
     id="path2997"
     style="fill:#ff3d00;fill-opacity:1" />
  <path
     d="M 4,10.5 H 1 v 2 h 3 v -2 z"
     id="path2995"
     style="fill:#ff3d00;fill-opacity:1" />
  <path
     d="M 15,6.31 V 1.5 H 9 V 6.31 C 7.21,7.35 6,9.28 6,11.5 c 0,3.31 2.69,6 6,6 3.31,0 6,-2.69 6,-6 0,-2.22 -1.21,-4.15 -3,-5.19 z"
     id="path2993"
     style="fill:#4527a0;fill-opacity:1" />
  <path
     d="m 20,10.5 v 2 h 3 v -2 h -3 z"
     id="path2991"
     style="fill:#ff3d00;fill-opacity:1" />
  <path
     d="m 17.24,18.16 1.79,1.8 1.41,-1.41 -1.8,-1.79 -1.4,1.4 z"
     id="path6"
     style="fill:#ff3d00;fill-opacity:1" />
</svg>
