<?xml version="1.0" encoding="UTF-8" standalone="no"?>
<!-- Generator: Adobe Illustrator 19.0.0, SVG Export Plug-In . SVG Version: 6.00 Build 0)  -->

<svg
   xmlns:dc="http://purl.org/dc/elements/1.1/"
   xmlns:cc="http://creativecommons.org/ns#"
   xmlns:rdf="http://www.w3.org/1999/02/22-rdf-syntax-ns#"
   xmlns:svg="http://www.w3.org/2000/svg"
   xmlns="http://www.w3.org/2000/svg"
   xmlns:sodipodi="http://sodipodi.sourceforge.net/DTD/sodipodi-0.dtd"
   xmlns:inkscape="http://www.inkscape.org/namespaces/inkscape"
   version="1.1"
   id="Capa_1"
   x="0px"
   y="0px"
   viewBox="0 0 512 512"
   style="enable-background:new 0 0 512 512;"
   xml:space="preserve"
   inkscape:version="0.48.5 r10040"
   width="100%"
   height="100%"
   sodipodi:docname="network.svg"><metadata
     id="metadata4019"><rdf:RDF><cc:Work
         rdf:about=""><dc:format>image/svg+xml</dc:format><dc:type
           rdf:resource="http://purl.org/dc/dcmitype/StillImage" /><dc:title></dc:title></cc:Work></rdf:RDF></metadata><defs
     id="defs4017" /><sodipodi:namedview
     pagecolor="#ffffff"
     bordercolor="#666666"
     borderopacity="1"
     objecttolerance="10"
     gridtolerance="10"
     guidetolerance="10"
     inkscape:pageopacity="0"
     inkscape:pageshadow="2"
     inkscape:window-width="1366"
     inkscape:window-height="711"
     id="namedview4015"
     showgrid="false"
     inkscape:zoom="0.4609375"
     inkscape:cx="-147.52542"
     inkscape:cy="256"
     inkscape:window-x="0"
     inkscape:window-y="0"
     inkscape:window-maximized="1"
     inkscape:current-layer="Capa_1" /><g
     id="g3949"
     style="fill:#4527a0;fill-opacity:1"><g
       id="g3951"
       style="fill:#4527a0;fill-opacity:1"><path
         d="M256,16c-33.091,0-60,26.909-60,60s26.909,60,60,60s60-26.909,60-60S289.091,16,256,16z"
         id="path3953"
         style="fill:#4527a0;fill-opacity:1" /></g></g><g
     id="g3955"
     style="fill:#4527a0;fill-opacity:1"><g
       id="g3957"
       style="fill:#4527a0;fill-opacity:1"><path
         d="M421,286c-33.091,0-60,26.909-60,60s26.909,60,60,60s60-26.909,60-60S454.091,286,421,286z"
         id="path3959"
         style="fill:#4527a0;fill-opacity:1" /></g></g><g
     id="g3961"
     style="fill:#4527a0;fill-opacity:1"><g
       id="g3963"
       style="fill:#4527a0;fill-opacity:1"><path
         d="M489.714,403.429C473.192,423.164,448.693,436,421,436s-52.192-12.836-68.714-32.571    C339.199,417.975,331,437.011,331,458.075V481c0,8.291,6.709,15,15,15h151c8.291,0,15-6.709,15-15v-22.925    C512,437.011,502.801,417.975,489.714,403.429z"
         id="path3965"
         style="fill:#4527a0;fill-opacity:1" /></g></g><g
     id="g3967"
     style="fill:#4527a0;fill-opacity:1"><g
       id="g3969"
       style="fill:#4527a0;fill-opacity:1"><path
         d="M91,286c-33.091,0-60,26.909-60,60s26.909,60,60,60s60-26.909,60-60S124.091,286,91,286z"
         id="path3971"
         style="fill:#4527a0;fill-opacity:1" /></g></g><g
     id="g3973"
     style="fill:#4527a0;fill-opacity:1"><g
       id="g3975"
       style="fill:#4527a0;fill-opacity:1"><path
         d="M159.714,403.429C143.192,423.164,118.693,436,91,436s-52.192-12.836-68.714-32.571C9.199,417.975,0,437.011,0,458.075    V481c0,8.291,6.709,15,15,15h151c8.291,0,15-6.709,15-15v-22.925C181,437.011,172.801,417.975,159.714,403.429z"
         id="path3977"
         style="fill:#4527a0;fill-opacity:1" /></g></g><g
     id="g3979"
     style="fill:#4527a0;fill-opacity:1"><g
       id="g3981"
       style="fill:#4527a0;fill-opacity:1"><path
         d="M331,226c8.291,0,15-6.709,15-15v-22.925c0-21.064-8.199-40.1-21.286-54.646C308.192,153.164,283.693,166,256,166    s-52.192-12.836-68.714-32.571C174.199,147.975,166,167.011,166,188.075V211c0,8.291,6.709,15,15,15h60v95.636l-60.529,29.601    c-0.833,14.191-4.938,27.398-11.618,39.082l87.074-42.583l87.991,44c-7.026-11.794-11.329-25.247-12.308-39.699L271,321.728V226    H331z"
         id="path3983"
         style="fill:#4527a0;fill-opacity:1" /></g></g><g
     id="g3985" /><g
     id="g3987" /><g
     id="g3989" /><g
     id="g3991" /><g
     id="g3993" /><g
     id="g3995" /><g
     id="g3997" /><g
     id="g3999" /><g
     id="g4001" /><g
     id="g4003" /><g
     id="g4005" /><g
     id="g4007" /><g
     id="g4009" /><g
     id="g4011" /><g
     id="g4013" /></svg>