<?xml version="1.0" encoding="UTF-8" standalone="no"?>
<!-- Generator: Adobe Illustrator 19.0.0, SVG Export Plug-In . SVG Version: 6.00 Build 0)  -->

<svg
   xmlns:dc="http://purl.org/dc/elements/1.1/"
   xmlns:cc="http://creativecommons.org/ns#"
   xmlns:rdf="http://www.w3.org/1999/02/22-rdf-syntax-ns#"
   xmlns:svg="http://www.w3.org/2000/svg"
   xmlns="http://www.w3.org/2000/svg"
   xmlns:sodipodi="http://sodipodi.sourceforge.net/DTD/sodipodi-0.dtd"
   xmlns:inkscape="http://www.inkscape.org/namespaces/inkscape"
   version="1.1"
   id="Capa_1"
   x="0px"
   y="0px"
   viewBox="0 0 512 512"
   style="enable-background:new 0 0 512 512;"
   xml:space="preserve"
   inkscape:version="0.48.5 r10040"
   width="100%"
   height="100%"
   sodipodi:docname="puzzle.svg"><metadata
     id="metadata61"><rdf:RDF><cc:Work
         rdf:about=""><dc:format>image/svg+xml</dc:format><dc:type
           rdf:resource="http://purl.org/dc/dcmitype/StillImage" /><dc:title></dc:title></cc:Work></rdf:RDF></metadata><defs
     id="defs59" /><sodipodi:namedview
     pagecolor="#ffffff"
     bordercolor="#666666"
     borderopacity="1"
     objecttolerance="10"
     gridtolerance="10"
     guidetolerance="10"
     inkscape:pageopacity="0"
     inkscape:pageshadow="2"
     inkscape:window-width="1366"
     inkscape:window-height="711"
     id="namedview57"
     showgrid="false"
     inkscape:zoom="0.4609375"
     inkscape:cx="-147.52542"
     inkscape:cy="256"
     inkscape:window-x="0"
     inkscape:window-y="0"
     inkscape:window-maximized="1"
     inkscape:current-layer="Capa_1" /><g
     id="g3"
     style="fill:#4527a0;fill-opacity:1"><g
       id="g5"
       style="fill:#4527a0;fill-opacity:1"><path
         d="M322,0v65c16.569,0,30,13.431,30,30c0,16.569-13.431,30-30,30v65h65c0,16.569,13.431,30,30,30c16.569,0,30-13.431,30-30    h65V0H322z"
         id="path7"
         style="fill:#4527a0;fill-opacity:1" /></g></g><g
     id="g9"
     style="fill:#4527a0;fill-opacity:1"><g
       id="g11"
       style="fill:#4527a0;fill-opacity:1"><path
         d="M345,322c0,16.569-13.431,30-30,30c-16.569,0-30-13.431-30-30h-65v65c-16.569,0-30,13.431-30,30c0,16.569,13.431,30,30,30    v65h190V322H345z"
         id="path13"
         style="fill:#4527a0;fill-opacity:1" /></g></g><g
     id="g15"
     style="fill:#4527a0;fill-opacity:1"><g
       id="g17"
       style="fill:#4527a0;fill-opacity:1"><path
         d="M190,365.052V322h-65c0-16.569-13.431-30-30-30c-16.569,0-30,13.431-30,30H0v190h190v-43.052    c-17.921-10.389-30-29.784-30-51.948S172.079,375.441,190,365.052z"
         id="path19"
         style="fill:#4527a0;fill-opacity:1" /></g></g><g
     id="g21"
     style="fill:#4527a0;fill-opacity:1"><g
       id="g23"
       style="fill:#4527a0;fill-opacity:1"><path
         d="M190,167v-65H0v190h43.052C53.441,274.079,72.836,262,95,262s41.559,12.079,51.948,30H190v-65c16.569,0,30-13.431,30-30    C220,180.431,206.569,167,190,167z"
         id="path25"
         style="fill:#4527a0;fill-opacity:1" /></g></g><g
     id="g27" /><g
     id="g29" /><g
     id="g31" /><g
     id="g33" /><g
     id="g35" /><g
     id="g37" /><g
     id="g39" /><g
     id="g41" /><g
     id="g43" /><g
     id="g45" /><g
     id="g47" /><g
     id="g49" /><g
     id="g51" /><g
     id="g53" /><g
     id="g55" /></svg>