<?xml version="1.0" encoding="UTF-8" standalone="no"?>
<!-- Generator: Adobe Illustrator 19.0.0, SVG Export Plug-In . SVG Version: 6.00 Build 0)  -->

<svg
   xmlns:dc="http://purl.org/dc/elements/1.1/"
   xmlns:cc="http://creativecommons.org/ns#"
   xmlns:rdf="http://www.w3.org/1999/02/22-rdf-syntax-ns#"
   xmlns:svg="http://www.w3.org/2000/svg"
   xmlns="http://www.w3.org/2000/svg"
   xmlns:sodipodi="http://sodipodi.sourceforge.net/DTD/sodipodi-0.dtd"
   xmlns:inkscape="http://www.inkscape.org/namespaces/inkscape"
   version="1.1"
   id="Capa_1"
   x="0px"
   y="0px"
   viewBox="0 0 512.002 512.002"
   style="enable-background:new 0 0 512.002 512.002;"
   xml:space="preserve"
   inkscape:version="0.48.5 r10040"
   width="100%"
   height="100%"
   sodipodi:docname="startup.svg"><metadata
     id="metadata73"><rdf:RDF><cc:Work
         rdf:about=""><dc:format>image/svg+xml</dc:format><dc:type
           rdf:resource="http://purl.org/dc/dcmitype/StillImage" /><dc:title></dc:title></cc:Work></rdf:RDF></metadata><defs
     id="defs71" /><sodipodi:namedview
     pagecolor="#ffffff"
     bordercolor="#666666"
     borderopacity="1"
     objecttolerance="10"
     gridtolerance="10"
     guidetolerance="10"
     inkscape:pageopacity="0"
     inkscape:pageshadow="2"
     inkscape:window-width="1366"
     inkscape:window-height="711"
     id="namedview69"
     showgrid="false"
     inkscape:zoom="0.4609357"
     inkscape:cx="-147.526"
     inkscape:cy="256.001"
     inkscape:window-x="0"
     inkscape:window-y="0"
     inkscape:window-maximized="1"
     inkscape:current-layer="Capa_1" /><g
     id="g3"
     style="fill:#ff3d00;fill-opacity:1"><g
       id="g5"
       style="fill:#ff3d00;fill-opacity:1"><path
         d="M172.271,464.772c-2.921-10.222-11.6-17.518-22.114-18.589l-23.292-2.372c-27.254-2.774-49.076-24.566-51.89-51.817    l-2.42-23.453c-1.084-10.507-8.387-19.178-18.606-22.088c-10.001-2.85-20.539,0.583-26.855,8.756    c-0.418,0.542-0.822,1.109-1.212,1.702c-12.8,19.523-19.243,45.66-19.15,77.686c0.071,24.887,4.205,46.758,5.979,55.009    c0.883,4.103,2.935,7.765,5.792,10.621c2.858,2.857,6.52,4.911,10.624,5.793c8.248,1.773,30.119,5.907,55.007,5.979    c32.023,0.092,58.16-6.35,77.682-19.148c0.59-0.386,1.17-0.8,1.714-1.221C171.698,485.318,175.128,474.776,172.271,464.772z"
         id="path7"
         style="fill:#ff3d00;fill-opacity:1" /></g></g><g
     id="g9"
     style="fill:#ff3d00;fill-opacity:1"><g
       id="g11"
       style="fill:#ff3d00;fill-opacity:1"><path
         d="M262.533,383.379L130.442,251.288c-8.146-8.146-21.627-7.142-28.479,2.117L81.13,281.564    c-11.719,15.841-10.05,38.294,3.884,52.228l96.219,96.22c14.577,14.577,37.83,15.733,53.781,2.674l26.131-21.394    C269.772,404.228,270.417,391.263,262.533,383.379z"
         id="path13"
         style="fill:#ff3d00;fill-opacity:1" /></g></g><g
     id="g15"
     style="fill:#ff3d00;fill-opacity:1"><g
       id="g17"
       style="fill:#ff3d00;fill-opacity:1"><path
         d="M490.761,17.166c-13.437-13.437-32.64-19.539-51.368-16.323l-20.18,3.465c-32.119,5.515-63.526,14.962-93.351,28.08    c-58.552,25.752-110.043,67.13-148.908,119.66l-34.275,46.326c-5.551,7.503-4.775,17.938,1.824,24.537l144.021,144.021    c6.848,6.848,17.773,7.392,25.266,1.256l52.559-43.031c44.696-36.591,80.994-82.865,104.971-133.819    c15.337-32.594,26.203-67.121,32.3-102.624l3.465-20.18C510.3,49.806,504.197,30.603,490.761,17.166z M390.68,211.467    c-25.64,25.64-67.361,25.64-93.002,0c-25.64-25.64-25.64-67.362,0-93.002c25.64-25.64,67.362-25.64,93.002,0    C416.32,144.105,416.32,185.826,390.68,211.467z"
         id="path19"
         style="fill:#ff3d00;fill-opacity:1" /></g></g><g
     id="g21"
     style="fill:#ff3d00;fill-opacity:1"><g
       id="g23"
       style="fill:#ff3d00;fill-opacity:1"><path
         d="M369.463,139.682c-13.941-13.941-36.625-13.941-50.567,0c-13.941,13.941-13.941,36.625,0,50.567    c13.941,13.941,36.625,13.941,50.567,0C383.405,176.307,383.405,153.624,369.463,139.682z"
         id="path25"
         style="fill:#ff3d00;fill-opacity:1" /></g></g><g
     id="g27"
     style="fill:#ff3d00;fill-opacity:1"><g
       id="g29"
       style="fill:#ff3d00;fill-opacity:1"><path
         d="M158.069,142.506L41.196,179.943c-17.868,5.723-31.173,20.027-35.591,38.263c-4.475,18.468,1.001,37.523,14.644,50.815    c6.163,6.004,13.77,10.321,21.975,12.909l12.237,3.859c0.78,0.246,1.62-0.043,2.105-0.701c0.01-0.012,0.018-0.023,0.026-0.035    l95.822-129.514c2.518-3.403,5.089-6.756,7.712-10.063C161.287,144.012,159.847,141.935,158.069,142.506z"
         id="path31"
         style="fill:#ff3d00;fill-opacity:1" /></g></g><g
     id="g33"
     style="fill:#ff3d00;fill-opacity:1"><g
       id="g35"
       style="fill:#ff3d00;fill-opacity:1"><path
         d="M368.132,348.919c-0.015,0.012-0.03,0.025-0.046,0.037L236.75,456.48c-0.609,0.499-1.229,0.976-1.858,1.433    c-0.685,0.498-0.941,1.398-0.64,2.189l5.207,13.672c2.675,7.023,6.85,13.457,12.162,18.769c0.726,0.726,1.474,1.431,2.241,2.114    c14.018,12.471,33.102,16.647,51.047,11.173c17.948-5.474,31.451-19.591,36.123-37.763l30.135-117.221    C371.624,349.074,369.549,347.757,368.132,348.919z"
         id="path37"
         style="fill:#ff3d00;fill-opacity:1" /></g></g><g
     id="g39" /><g
     id="g41" /><g
     id="g43" /><g
     id="g45" /><g
     id="g47" /><g
     id="g49" /><g
     id="g51" /><g
     id="g53" /><g
     id="g55" /><g
     id="g57" /><g
     id="g59" /><g
     id="g61" /><g
     id="g63" /><g
     id="g65" /><g
     id="g67" /></svg>